<svg width="162" height="246" viewBox="0 0 162 246" fill="none" xmlns="http://www.w3.org/2000/svg">
<path d="M17.1245 133.961V60.0702C17.1245 57.1839 18.3716 54.4384 20.5452 52.5395L74.1355 5.71961C77.8898 2.4396 83.4865 2.42581 87.257 5.68728L141.418 52.5369C143.613 54.4364 144.875 57.1965 144.875 60.1V133.961C144.875 139.484 140.398 143.961 134.875 143.961H27.1245C21.6017 143.961 17.1245 139.484 17.1245 133.961Z" fill="#256EF4"/>
<path d="M80.9421 65.2225C91.2607 65.2226 99.6257 73.4649 99.6257 83.6317C99.6256 90.3984 95.919 96.3109 90.3982 99.5096L99.7419 144.15H62.8416L71.7322 99.6503C66.0755 96.4862 62.2587 90.4986 62.2585 83.6317C62.2585 73.4649 70.6235 65.2225 80.9421 65.2225Z" fill="white"/>
<path d="M1.80176 184.939H6.19629V194.344H6.47461L14.1797 184.939H19.4824L11.5576 194.432L19.5703 206.15H14.2822L8.4082 197.376L6.19629 200.086V206.15H1.80176V184.939ZM43.8457 206.15H40.0371L30.7207 192.674H30.5596V206.15H26.165V184.939H30.0322L39.2754 198.401H39.4658V184.939H43.8457V206.15ZM71.3584 195.545C71.3584 197.791 70.9287 199.739 70.0693 201.39C69.2197 203.03 68.043 204.285 66.5391 205.154C65.0449 206.014 63.3506 206.443 61.4561 206.443C59.5615 206.443 57.8623 206.014 56.3584 205.154C54.8643 204.285 53.6875 203.025 52.8281 201.375C51.9785 199.724 51.5537 197.781 51.5537 195.545C51.5537 193.279 51.9785 191.326 52.8281 189.685C53.6875 188.045 54.8643 186.795 56.3584 185.935C57.8623 185.076 59.5615 184.646 61.4561 184.646C63.3506 184.646 65.0449 185.076 66.5391 185.935C68.043 186.795 69.2197 188.045 70.0693 189.685C70.9287 191.326 71.3584 193.279 71.3584 195.545ZM66.9053 195.545C66.9053 194.051 66.6807 192.781 66.2314 191.736C65.792 190.691 65.1621 189.9 64.3418 189.363C63.5312 188.816 62.5693 188.543 61.4561 188.543C60.3525 188.543 59.3906 188.816 58.5703 189.363C57.7598 189.9 57.1299 190.691 56.6807 191.736C56.2314 192.781 56.0068 194.051 56.0068 195.545C56.0068 197.039 56.2314 198.308 56.6807 199.353C57.1299 200.398 57.7598 201.194 58.5703 201.741C59.3906 202.278 60.3525 202.547 61.4561 202.547C62.5693 202.547 63.5312 202.278 64.3418 201.741C65.1621 201.194 65.792 200.398 66.2314 199.353C66.6807 198.308 66.9053 197.039 66.9053 195.545ZM93.2168 192.337C93.1094 191.556 92.8457 190.882 92.4258 190.315C92.0156 189.739 91.4785 189.3 90.8145 188.997C90.1504 188.694 89.4131 188.543 88.6025 188.543C87.499 188.543 86.5322 188.821 85.7021 189.378C84.8818 189.925 84.2422 190.725 83.7832 191.78C83.3242 192.825 83.0947 194.08 83.0947 195.545C83.0947 197.049 83.3242 198.323 83.7832 199.368C84.2422 200.403 84.8818 201.194 85.7021 201.741C86.5322 202.278 87.4844 202.547 88.5586 202.547C89.3691 202.547 90.0967 202.4 90.7412 202.107C91.3955 201.814 91.9375 201.399 92.3672 200.862C92.7969 200.315 93.0801 199.666 93.2168 198.914L97.6846 198.958C97.5186 200.286 97.04 201.521 96.249 202.664C95.4678 203.807 94.4131 204.724 93.085 205.418C91.7568 206.101 90.2285 206.443 88.5 206.443C86.6055 206.443 84.9111 206.014 83.417 205.154C81.9229 204.285 80.751 203.03 79.9014 201.39C79.0615 199.739 78.6416 197.791 78.6416 195.545C78.6416 193.279 79.0664 191.326 79.916 189.685C80.7754 188.045 81.9473 186.795 83.4316 185.935C84.9258 185.076 86.6152 184.646 88.5 184.646C90.1309 184.646 91.6055 184.949 92.9238 185.555C94.2422 186.16 95.3115 187.044 96.1318 188.206C96.9619 189.358 97.4795 190.735 97.6846 192.337H93.2168ZM105.261 184.939H109.655V194.344H109.934L117.639 184.939H122.941L115.017 194.432L123.029 206.15H117.741L111.867 197.376L109.655 200.086V206.15H105.261V184.939ZM134.019 206.15H129.624V184.939H134.019V206.15ZM159.803 206.15H155.994L146.678 192.674H146.517V206.15H142.122V184.939H145.989L155.232 198.401H155.423V184.939H159.803V206.15Z" fill="#020F27"/>
<path d="M67.7656 233.568H55.6562V232.279H67.7656V233.568ZM69.6016 239.467H53.7031V238.197H69.6016V239.467ZM62.375 238.627H60.8516V233.06H62.375V238.627ZM57.2188 232.826H55.6562V225.853H57.2188V232.826ZM85.9961 227.435H74.9023V226.146H85.9961V227.435ZM88.8086 239.291H72.9883V238.002H88.8086V239.291ZM86.8359 228.295C86.8359 229.415 86.8262 230.355 86.8066 231.117C86.7871 231.879 86.7253 232.728 86.6211 233.666C86.5169 234.603 86.3477 235.626 86.1133 236.732L84.5703 236.596C84.8047 235.567 84.9772 234.587 85.0879 233.656C85.1986 232.725 85.2702 231.889 85.3027 231.146C85.3353 230.404 85.3516 229.454 85.3516 228.295V226.146H86.8359V228.295ZM74.6484 232.709L74.4336 231.439L85.7422 230.971V232.103L74.6484 232.709ZM106.609 237.084H105.086V224.389H106.609V237.084ZM107.156 241.361H95.3984V240.072H107.156V241.361ZM96.9219 240.502H95.3984V235.795H96.9219V240.502ZM97.2344 225.599C98.0938 225.599 98.8717 225.779 99.5684 226.137C100.265 226.495 100.809 226.999 101.199 227.65C101.59 228.301 101.785 229.037 101.785 229.857C101.785 230.691 101.59 231.43 101.199 232.074C100.809 232.719 100.265 233.223 99.5684 233.588C98.8717 233.952 98.0938 234.135 97.2344 234.135C96.375 234.135 95.6003 233.952 94.9102 233.588C94.2201 233.223 93.6764 232.719 93.2793 232.074C92.8822 231.43 92.6836 230.691 92.6836 229.857C92.6836 229.037 92.8822 228.301 93.2793 227.65C93.6764 226.999 94.2201 226.495 94.9102 226.137C95.6003 225.779 96.375 225.599 97.2344 225.599ZM97.2344 226.947C96.6615 226.947 96.1406 227.071 95.6719 227.318C95.2031 227.566 94.8385 227.911 94.5781 228.353C94.3177 228.796 94.1875 229.297 94.1875 229.857C94.1875 230.417 94.3177 230.922 94.5781 231.371C94.8385 231.82 95.2031 232.168 95.6719 232.416C96.1406 232.663 96.6615 232.787 97.2344 232.787C97.8073 232.787 98.3249 232.663 98.7871 232.416C99.2493 232.168 99.6139 231.82 99.8809 231.371C100.148 230.922 100.281 230.417 100.281 229.857C100.281 229.297 100.148 228.796 99.8809 228.353C99.6139 227.911 99.2493 227.566 98.7871 227.318C98.3249 227.071 97.8073 226.947 97.2344 226.947Z" fill="#020F27"/>
</svg>
